<?xml version="1.0" encoding="UTF-8" standalone="no"?>
<!DOCTYPE svg PUBLIC "-//W3C//DTD SVG 1.1//EN" "http://www.w3.org/Graphics/SVG/1.1/DTD/svg11.dtd">
<svg width="100%" height="100%" viewBox="23 4 42 42" version="1.1"
    xmlns="http://www.w3.org/2000/svg" xmlns:xlink="http://www.w3.org/1999/xlink"
    xml:space="preserve" xmlns:serif="http://www.serif.com/"
    style="fill-rule:evenodd;clip-rule:evenodd;stroke-miterlimit:3.864;">
    <rect id="Artboard2" x="-0" y="0" width="92" height="100" style="fill:none;"/>
    <g>
        <g>
            <path d="M71.043,29.315c0,13.769 -11.161,24.929 -24.93,24.929c-13.768,0 -24.93,-11.16 -24.93,-24.929c-0,-13.769 11.162,-24.93 24.93,-24.93c13.769,-0 24.93,11.161 24.93,24.93" style="fill-rule:nonzero;"/>
        </g>
        <g>
            <path d="M38.741,11.485l7.375,7.183l7.371,-7.174l-14.747,35.649l7.376,-7.037l7.371,7.034l-14.746,-35.655Zm25.174,10.447l-7.172,7.385l7.163,7.383l-35.594,-14.77l7.027,7.387l-7.025,7.383l35.601,-14.768Z" style="fill:#fff;fill-rule:nonzero;"/>
            <path d="M41.475,25.341c-0.13,-0.052 -0.23,-0.073 -0.317,-0.082c-0.006,0.232 -0.085,0.537 -0.468,0.498c-0.291,-0.027 -0.621,-0.415 -0.621,-0.415c-0,-0 -0.096,-0.027 -0.244,0.012l-0.231,0.17c-0,0.015 0.1,0.008 0.219,0.051l0.188,0.092l0.037,0.098l-0.2,0.116l-0.103,0.191c0.012,0.011 0.091,-0.053 0.222,-0.079l0.198,-0.042l0.105,0.084l-0.151,0.21l-0.021,0.193l0.179,-0.096l0.205,-0.073l0.074,0.227c0.052,0.005 0.207,-0.187 0.334,-0.206c0.2,-0.03 0.405,0.091 0.637,0.064c0.115,-0.015 0.248,-0.07 0.381,-0.149c-0.261,-0.309 -0.375,-0.655 -0.423,-0.864" style="fill:#fff;fill-rule:nonzero;"/>
            <path d="M37.988,20.977c0.025,-0.269 0.394,-0.458 0.394,-0.458c0,-0 0.062,-0.155 0.041,-0.307c-0.017,-0.136 -0.116,-0.27 -0.135,-0.269l-0.049,0.227l-0.098,0.211l-0.12,-0.024c-0,0 0.059,-0.164 0.02,-0.292c-0.041,-0.128 -0.183,-0.22 -0.198,-0.213c-0.014,0.009 0.02,0.137 0.002,0.258c-0.022,0.136 -0.098,0.266 -0.098,0.266l-0.088,-0.012c0,0 -0.016,-0.168 -0.089,-0.29c-0.074,-0.121 -0.207,-0.196 -0.22,-0.184c-0.014,0.012 0.036,0.205 0.026,0.385c-0.012,0.181 -0.086,0.348 -0.086,0.348l-0.18,-0.014l-0.181,-0.128c-0,-0 -0.03,0.279 0.18,0.457l0.116,0.19l-0.162,0.113c-0,-0 -0.067,0.655 0.443,1.249c0.165,0.191 0.338,0.339 0.5,0.45c0.008,-0.508 0.145,-0.94 0.281,-1.242c-0.298,-0.278 -0.317,-0.523 -0.299,-0.721" style="fill:#fff;fill-rule:nonzero;"/>
            <path d="M43.975,26.129c-0.22,-0.143 -0.382,-0.016 -0.71,-0.326c-0.188,-0.179 -0.102,-0.414 -0.191,-0.671l-0.114,-0.296c0.152,0.008 0.394,-0.024 0.524,-0.268c0.171,-0.319 -0.229,-0.645 -0.568,-0.808c-0.242,-0.115 -0.7,-0.235 -0.876,-0.587c-0.145,-0.289 0.053,-0.61 0.373,-0.519l0.117,0.093c-0.461,0.477 0.535,0.943 0.692,0.735c-0.076,-0.047 -0.279,-0.203 -0.306,-0.504c-0.02,-0.255 -0.141,-0.465 -0.402,-0.559c-0.128,-0.048 -0.269,-0.045 -0.401,-0.003l-0.297,0.197c-0.099,0.122 -0.157,0.287 -0.135,0.49c0.068,0.608 0.878,0.762 1.117,0.882c0.269,0.137 0.372,0.304 0.319,0.419c-0.04,0.085 -0.136,0.157 -0.398,0.087c-0.092,-0.089 -0.206,-0.172 -0.357,-0.243c-0.508,-0.235 -0.816,-0.156 -1.04,-0.276c-0.123,-0.066 -0.246,-0.202 -0.32,-0.405l-0.051,0.005c-0.034,0.002 -0.341,0.017 -0.605,-0.176l-0.033,-0.029l-0.258,0.203c-0.426,0.219 -0.91,0.044 -0.965,0.021l-0.292,-0.117l0.115,-0.293c0.002,-0.001 0.053,-0.131 0.072,-0.357l0.002,-0.066l-0.012,-0.14l-0.14,-0.016c-0.183,-0.006 -0.355,0.044 -0.358,0.044l-0.138,0.041c-0.045,0.402 -0.01,0.872 0.209,1.372c-0.173,0.153 -0.427,0.296 -0.754,0.254c-0.307,-0.041 -0.534,-0.336 -0.534,-0.336c0,0 -0.143,-0.041 -0.266,-0.023c-0.125,0.018 -0.213,0.103 -0.213,0.118c-0,0.014 0.095,0.017 0.218,0.066l0.203,0.091l0.029,0.143l-0.22,0.123l-0.116,0.199c0.013,0.015 0.099,-0.053 0.24,-0.074l0.211,-0.025l0.099,0.122l-0.17,0.222l-0.029,0.203l0.193,-0.097l0.221,-0.07l0.071,0.245c0.055,0.006 0.225,-0.194 0.36,-0.208c0.214,-0.025 0.43,0.109 0.677,0.086c0.172,-0.016 0.387,-0.116 0.588,-0.252c0.316,0.129 0.673,0.171 0.997,0.174c0.533,0.009 0.67,-0.238 1.399,0.099c-0,0 0.06,0.645 0.57,1.065c0.487,0.401 1.159,0.367 1.159,0.367c0,-0 0.228,0.276 0.034,0.407c-0.209,0.141 -0.483,-0.113 -0.483,-0.113l-0.25,0.132l-0.126,0.238l0.202,-0.062l0.207,0l0.082,0.099l0.092,0.064l-0.077,0.17l0.015,0.191l0.154,-0.119l0.173,-0.103l0.166,0.064c0,0 -0.033,0.114 -0.009,0.244c0.025,0.13 0.077,0.194 0.098,0.198l0.101,-0.153l0.13,-0.103l0.087,0.114l0.112,0.078l0.034,-0.275c0,-0 0.172,-0.106 0.191,-0.239c0.017,-0.135 -0.086,-1.025 -0.439,-1.254" style="fill:#fff;fill-rule:nonzero;"/>
            <path d="M40.966,21.273c-0.216,-0.178 -0.173,-0.487 -0.16,-0.491c0.011,-0.004 0.177,0.104 0.301,0.214c0.126,0.11 0.233,0.262 0.233,0.262c-0,-0 -0.16,0.193 -0.374,0.015m-0.388,0.886c-0.142,0.234 -0.099,0.429 -0.127,0.45l-0.256,-0.037l-0.214,-0.075l-0.213,0.091l-0.224,0.014l-0,-0.002l-0.002,0l-0.095,-0.203l-0.02,-0.231l-0.17,-0.152l-0.151,-0.207c0.002,-0.036 0.195,-0.09 0.332,-0.326c0.08,-0.136 0.18,-0.534 0.203,-0.535c0.023,-0 0.08,0.194 -0.025,0.502c-0.106,0.306 -0.264,0.385 -0.264,0.385l0.091,0.117l0.151,0.126c0,-0 -0.016,0.07 0.002,0.207c0.02,0.14 0.049,0.145 0.049,0.145l-0,0.001l0.001,-0c0,-0 0.018,0.023 0.15,-0.027c0.13,-0.048 0.186,-0.097 0.186,-0.097l0.182,0.073l0.145,0.025c0,0 -0.005,-0.177 0.215,-0.415c0.219,-0.239 0.417,-0.283 0.427,-0.261c0.012,0.021 -0.29,0.297 -0.373,0.432m-0.502,-0.676l0.105,-0.099l-0.001,-0.013l-0.101,-0.181l0.051,-0.142l0.002,-0.003l0.223,0.133l0.051,0.031l0.223,0.133l-0.001,0.003l-0.101,0.113l-0.206,-0.003l-0.012,0.005l-0.037,0.14l0.171,0.156l-0.251,0.407l-0.101,-0.219l-0.099,-0.094l-0.001,-0.001l-0.003,-0.001l-0.129,-0.041l-0.241,0.014l0.239,-0.414l0.219,0.076Zm-0.21,-1.104c0,-0 0.186,0.022 0.342,0.08c0.155,0.057 0.331,0.143 0.331,0.162c-0.002,0.019 -0.25,0.2 -0.509,0.094c-0.258,-0.104 -0.164,-0.336 -0.164,-0.336m0.994,-0.004c0.078,-0.118 -0.051,-0.29 -0.176,-0.38l-0.709,-0.466l-0.072,0.184c-0.009,0.132 0.044,0.215 0.044,0.215c-0.171,-0.006 -0.462,0.078 -0.569,0.195l0.179,0.125c-0.147,0.092 -0.466,0.306 -0.662,0.535c-0.261,0.307 -0.385,0.621 -0.385,0.621l0.282,0.019c-0.334,0.487 -0.402,0.924 -0.402,0.924c-0,-0 0.215,-0.064 0.454,-0.058c0.186,0.005 0.382,0.067 0.382,0.067c-0,-0 0.094,0.207 0.071,0.494c-0.024,0.287 -0.094,0.45 -0.094,0.45c0,0 0.838,0.324 1.04,-0.465l-0,-0.001l0.288,0.31c0.18,0.131 0.397,0.115 0.397,0.115c0,-0 -0.04,-0.223 0.119,-0.58c0.091,-0.2 0.211,-0.321 0.313,-0.408l0.156,0.081l0.185,-0.03c-0,0 -0.113,-0.191 -0.098,-0.344c0.017,-0.15 0.149,-0.292 0.178,-0.618c0.021,-0.223 -0.08,-0.333 -0.08,-0.333l0.152,-0.043l0.137,-0.129l-0.707,-0.465c-0.061,-0.039 -0.316,-0.17 -0.423,-0.015" style="fill:#fff;fill-rule:nonzero;"/>
            <path d="M50.14,33.978c0.046,0.132 0.067,0.232 0.072,0.319c-0.233,-0.001 -0.54,0.067 -0.513,0.453c0.019,0.29 0.395,0.634 0.395,0.634c0,-0 0.023,0.097 -0.018,0.243l-0.179,0.226c-0.014,-0.001 -0.003,-0.101 -0.044,-0.222l-0.085,-0.19l-0.098,-0.04l-0.121,0.196l-0.194,0.097c-0.012,-0.013 0.056,-0.089 0.084,-0.22l0.048,-0.197l-0.08,-0.106l-0.216,0.144l-0.192,0.015l0.102,-0.176l0.08,-0.202l-0.226,-0.082c-0.003,-0.051 0.195,-0.2 0.217,-0.326c0.035,-0.201 -0.079,-0.41 -0.043,-0.641c0.017,-0.113 0.077,-0.246 0.158,-0.377c0.303,0.272 0.644,0.397 0.853,0.452" style="fill:#fff;fill-rule:nonzero;"/>
            <path d="M54.393,37.601c0.269,-0.017 0.472,-0.38 0.472,-0.38c-0,0 0.156,-0.055 0.307,-0.031c0.134,0.022 0.266,0.124 0.264,0.144l-0.229,0.041l-0.213,0.092l0.02,0.121c0,0 0.166,-0.055 0.292,-0.01c0.127,0.046 0.216,0.19 0.206,0.205c-0.008,0.012 -0.136,-0.027 -0.256,-0.011c-0.138,0.017 -0.269,0.089 -0.269,0.089l0.009,0.088c0,-0 0.168,0.022 0.287,0.099c0.119,0.079 0.19,0.212 0.179,0.225c-0.012,0.015 -0.205,-0.043 -0.386,-0.038c-0.181,0.008 -0.35,0.075 -0.35,0.075l0.008,0.182l0.121,0.184c0,0 -0.278,0.022 -0.451,-0.194l-0.186,-0.122l-0.118,0.159c-0,-0 -0.656,0.046 -1.234,-0.482c-0.188,-0.172 -0.327,-0.349 -0.435,-0.515c0.509,0.007 0.944,-0.117 1.25,-0.241c0.27,0.305 0.515,0.332 0.712,0.32" style="fill:#fff;fill-rule:nonzero;"/>
            <path d="M52.796,36.701l-0.012,-0.138l-0.206,-0.017c-0.226,0.012 -0.358,0.059 -0.358,0.061l-0.302,0.108l-0.104,-0.299c-0.006,-0.02 -0.072,-0.212 -0.072,-0.449c-0,-0.326 0.128,-0.579 0.342,-0.757l-0.034,-0.042c-0.139,-0.203 -0.16,-0.423 -0.16,-0.538l0.003,-0.073l0.004,-0.05c-0.199,-0.082 -0.332,-0.209 -0.394,-0.334c-0.111,-0.228 -0.024,-0.533 -0.244,-1.048c-0.064,-0.153 -0.144,-0.271 -0.231,-0.364c-0.062,-0.265 0.015,-0.359 0.1,-0.396c0.115,-0.05 0.281,0.058 0.407,0.333c0.113,0.243 0.242,1.057 0.849,1.144c0.54,0.076 0.838,-0.426 0.711,-0.813c-0.086,-0.262 -0.292,-0.389 -0.548,-0.42c-0.3,-0.034 -0.449,-0.244 -0.494,-0.32c-0.212,0.15 0.222,1.163 0.713,0.715l0.089,0.12c0.083,0.324 -0.245,0.511 -0.53,0.356c-0.348,-0.187 -0.451,-0.648 -0.56,-0.894c-0.15,-0.344 -0.465,-0.752 -0.79,-0.593c-0.248,0.122 -0.285,0.363 -0.285,0.515l-0.292,-0.124c-0.252,-0.096 -0.493,-0.019 -0.664,-0.211c-0.301,-0.338 -0.167,-0.495 -0.304,-0.721c-0.219,-0.359 -1.104,-0.491 -1.239,-0.477c-0.137,0.013 -0.247,0.184 -0.247,0.184l-0.276,0.023l0.074,0.116l0.112,0.091l-0.106,0.126l-0.156,0.095c0.003,0.021 0.066,0.078 0.193,0.105c0.129,0.029 0.245,0 0.245,0l0.06,0.166l-0.11,0.172l-0.123,0.148l0.19,0.022l0.173,-0.071l0.061,0.094l0.096,0.085l-0.007,0.207l-0.067,0.2l0.242,-0.118l0.14,-0.246c-0,0 -0.247,-0.281 -0.099,-0.487c0.136,-0.19 0.406,0.046 0.406,0.046c0,-0 -0.054,0.672 0.331,1.171c0.403,0.523 1.048,0.604 1.048,0.604c0.314,0.739 0.063,0.869 0.054,1.401c-0.006,0.325 0.025,0.683 0.143,1.003c-0.142,0.197 -0.249,0.41 -0.271,0.581c-0.029,0.245 0.098,0.465 0.066,0.679c-0.019,0.135 -0.226,0.299 -0.22,0.353l0.244,0.079l-0.079,0.219l-0.102,0.19l0.202,-0.022l0.23,-0.164l0.116,0.102l-0.029,0.212c-0.028,0.139 -0.095,0.223 -0.083,0.236l0.204,-0.108l0.13,-0.218l0.141,0.035l0.083,0.205c0.046,0.127 0.046,0.22 0.062,0.221c0.014,-0 0.103,-0.085 0.123,-0.209c0.023,-0.125 -0.014,-0.268 -0.014,-0.268c-0,-0 -0.289,-0.236 -0.319,-0.544c-0.032,-0.328 0.12,-0.579 0.278,-0.746c0.492,0.234 0.962,0.284 1.365,0.252l0.044,-0.137c0,-0.003 0.056,-0.173 0.057,-0.359" style="fill:#fff;fill-rule:nonzero;"/>
            <path d="M54.218,34.241c0,0 0.149,0.111 0.254,0.24c0.107,0.13 0.209,0.297 0.205,0.309c-0.003,0.013 -0.315,0.046 -0.486,-0.175c-0.17,-0.222 0.027,-0.374 0.027,-0.374m-0.926,0.732c0.138,-0.077 0.423,-0.37 0.445,-0.358c0.021,0.011 -0.029,0.207 -0.274,0.418c-0.246,0.214 -0.422,0.202 -0.422,0.202l0.021,0.147l0.066,0.185c0,0 -0.049,0.052 -0.103,0.182c-0.052,0.129 -0.032,0.148 -0.032,0.148l0,0.002l0.002,0c-0,0 0.005,0.029 0.142,0.052c0.138,0.024 0.209,0.009 0.209,0.009l0.12,0.155l0.115,0.096c-0,-0 0.083,-0.156 0.393,-0.252c0.31,-0.096 0.503,-0.035 0.503,-0.009c-0.001,0.024 -0.403,0.111 -0.542,0.186c-0.239,0.13 -0.3,0.321 -0.336,0.323l-0.202,-0.16l-0.148,-0.173l-0.229,-0.028l-0.203,-0.101l0.004,-0.002l-0.004,-0l0.022,-0.225l0.097,-0.208l-0.068,-0.219l-0.027,-0.255c0.02,-0.029 0.214,0.021 0.451,-0.115m0.73,0.746l-0.42,0.226l0.022,-0.241l-0.039,-0.13l-0,-0.001l-0.002,-0.003l-0.09,-0.101l-0.217,-0.109l0.415,-0.237l0.151,0.177l0.142,-0.035l0.005,-0.013l0.003,-0.205l0.118,-0.097l0.003,-0l0.125,0.227l0.029,0.051l0.124,0.227l-0.001,0.002l-0.144,0.047l-0.176,-0.106l-0.014,-0.002l-0.103,0.102l0.069,0.221Zm1.029,0.024c-0,-0 -0.235,0.087 -0.332,-0.176c-0.096,-0.262 0.093,-0.504 0.111,-0.504c0.019,0 0.099,0.177 0.152,0.336c0.053,0.159 0.069,0.344 0.069,0.344m0.034,-1.418l-0.445,-0.722l-0.13,0.135l-0.05,0.149c-0,0 -0.108,-0.103 -0.33,-0.09c-0.327,0.018 -0.473,0.145 -0.624,0.157c-0.152,0.012 -0.343,-0.107 -0.343,-0.107l-0.033,0.185l0.077,0.156c-0.09,0.1 -0.216,0.217 -0.419,0.301c-0.362,0.148 -0.583,0.101 -0.583,0.101c-0,0 -0.023,0.218 0.102,0.401c0.082,0.12 0.192,0.221 0.301,0.297l-0.002,0c-0.794,0.179 -0.497,1.026 -0.497,1.026c0,-0 0.165,-0.064 0.452,-0.08c0.288,-0.015 0.492,0.087 0.492,0.087c0,-0 0.057,0.198 0.056,0.384c-0.002,0.239 -0.072,0.453 -0.072,0.453c-0,0 0.439,-0.056 0.937,-0.373l0.009,0.281c0,0 0.32,-0.113 0.633,-0.366c0.236,-0.188 0.459,-0.501 0.556,-0.645l0.12,0.184c0.119,-0.103 0.212,-0.391 0.213,-0.565c-0,0 0.082,0.057 0.212,0.052l0.187,-0.066l-0.443,-0.725c-0.087,-0.125 -0.255,-0.26 -0.375,-0.185c0.157,-0.103 0.035,-0.364 -0.001,-0.425" style="fill:#fff;fill-rule:nonzero;"/>
            <path d="M50.94,25.372l-0.134,0.209c0.197,0.213 0.376,0.446 0.376,0.446c-0,0 0.466,-0.232 0.969,-0.276c0.141,-0.012 0.274,-0.006 0.392,0.009l0.078,-0.115l0.247,0.053l0.024,0.137l0.158,0.058c0,0 0.193,-0.042 0.392,-0.164c0.198,-0.123 0.304,-0.281 0.304,-0.281c0,0 -0.435,-0.184 -1.019,-0.12c-0.584,0.062 -0.957,0.09 -0.957,0.09c-0,-0 -0.025,-0.26 -0.068,-0.528c-0.145,0.002 -0.284,0.029 -0.467,0.126c-0.106,0.056 -0.188,0.188 -0.295,0.356" style="fill:#fff;fill-rule:nonzero;"/>
            <path d="M54.884,20.921c-0.08,-0.039 -0.275,0.042 -0.608,0.261c-0.224,0.148 -0.46,0.396 -0.593,0.558l0.251,0.287l0.144,0.281c0.173,-0.289 0.504,-0.755 0.679,-0.751c0.119,0.001 0.196,0.316 0.244,0.613l0.192,0.076l-0.054,0.247l-0.092,0.028l0.015,0.172c0,-0 0.139,0.104 0.332,0.203c0.193,0.098 0.324,0.117 0.324,0.117c-0.001,-0 -0.072,-0.489 -0.271,-1.008c-0.199,-0.518 -0.524,-1.064 -0.564,-1.084" style="fill:#fff;fill-rule:nonzero;"/>
            <path d="M54.862,23.733c-0.218,-0.141 -0.531,-0.355 -0.834,-0.566l-0.321,-0.181l-0.248,-0.08l-0.012,-0l-0.004,0.002c-0.062,0.078 -0.14,0.158 -0.302,0.214l-0.221,0.035l-0.07,0.196c-0.137,0.277 -0.374,0.401 -0.536,0.422l-0.296,0.039l-0.054,-0.295l-0.055,-0.14l-0.23,0.12c-0.188,0.051 -0.368,-0 -0.491,-0.074c-0.25,0.363 -0.694,0.234 -1.333,0.769c0,-0 -0.11,0.09 -0.247,0.274c-0.357,0.117 -0.474,0.029 -0.517,-0.069c-0.05,-0.119 0.061,-0.285 0.34,-0.413c0.246,-0.114 1.073,-0.241 1.164,-0.857c0.079,-0.548 -0.43,-0.852 -0.824,-0.723c-0.308,0.101 -0.354,0.314 -0.409,0.606c-0.044,0.236 -0.16,0.354 -0.344,0.448c0.122,0.223 1.175,-0.24 0.726,-0.721l0.122,-0.091c0.329,-0.082 0.519,0.25 0.362,0.54c-0.192,0.351 -0.661,0.456 -0.91,0.564c-0.349,0.154 -0.766,0.471 -0.604,0.801c0.187,0.383 0.659,0.276 0.659,0.276l0.008,0l-0.116,0.252c-0.241,0.595 -0.456,0.684 -0.663,0.731c-0.208,0.049 -0.309,0.013 -0.385,0.106c-0.038,0.045 -0.134,0.383 -0.183,0.717c-0.052,0.345 -0.07,0.442 -0.066,0.715l0.165,0.08l-0.053,0.247l-0.075,0.027c0.03,0.14 0.069,0.228 0.069,0.228c0,0 0.232,0.024 0.456,-0.099c0.222,-0.124 0.339,-0.263 0.339,-0.263c-0,-0 -0.277,-0.16 -0.346,-0.325c-0.071,-0.162 -0.101,-0.776 0.065,-0.919c0.167,-0.143 0.762,0.095 1.409,-0.361c0.647,-0.454 0.697,-1.021 1.087,-1.23c0.685,-0.364 0.987,0.043 1.689,-0.26c0.721,-0.308 0.911,-0.749 0.911,-0.749c-0,-0 0.451,0.099 0.937,0.402c0.182,0.112 0.353,0.244 0.492,0.365l0.044,-0.04l0.245,0.053l-0.029,0.228l0.13,0.131c0,-0 0.15,0.033 0.351,-0.09c0.2,-0.124 0.342,-0.251 0.342,-0.251c-0,0 -0.865,-0.49 -1.334,-0.791" style="fill:#fff;fill-rule:nonzero;"/>
            <path d="M52.135,20.32l0.044,0.228c0,-0 -0.078,0.089 -0.278,0.082c-0.203,-0.006 -0.267,-0.056 -0.255,-0.088l0.489,-0.222Zm-0.116,-2.38l-0.084,0.092l-0.602,2.151l-0.135,0.055l-0.159,0.097c-0.112,-0.007 -0.262,-0.007 -0.426,0.069c-0.205,0.097 -0.296,0.209 -0.289,0.227l0.191,0.028l0.166,0.066c-0.04,0.064 -0.341,0.567 -0.078,1.04c0.285,0.505 0.676,0.66 0.715,1.102c0.017,0.183 -0.007,0.266 -0.007,0.266c0,-0 0.131,0.107 0.283,0.063c0.153,-0.042 0.348,-0.251 0.348,-0.251c-0,-0 0.125,0.082 0.216,0.23c0.091,0.147 0.115,0.292 0.115,0.292c-0,-0 0.184,-0.027 0.298,-0.254c0.113,-0.228 0.039,-0.44 0.039,-0.44c-0,-0 0.223,0.124 0.428,0.053c0.206,-0.069 0.124,-0.169 0.33,-0.223c0.207,-0.054 0.492,0.111 0.492,0.111c-0,0 -0.067,-0.622 -0.597,-0.873c-0.528,-0.251 -0.891,-0.273 -0.891,-0.273c0,0 -0.366,0.214 -0.62,0.232c-0.369,0.027 -0.547,-0.129 -0.547,-0.129l0.067,-0.149c0,0 0.214,0.112 0.51,0.03c0.296,-0.083 0.524,-0.287 0.524,-0.287l0.553,0.003c-0,0 0.085,0.175 0.27,0.147c0.185,-0.026 0.251,-0.157 0.224,-0.226c-0.028,-0.07 -0.318,-0.095 -0.258,-0.298c0.071,-0.239 0.313,-0.116 0.369,-0.136c0.058,-0.02 0.007,-0.292 -0.119,-0.352c-0.333,-0.112 -1.051,-0.198 -1.051,-0.198l-0.209,-0.105l-0.19,-0.021l0.174,-2.034l-0.05,-0.105Z" style="fill:#fff;fill-rule:nonzero;"/>
            <path d="M42.238,34.036l0.207,-0.138c0.214,0.195 0.45,0.371 0.45,0.371c0,0 -0.226,0.469 -0.264,0.973c-0.011,0.141 -0.003,0.274 0.014,0.392l-0.115,0.079l0.056,0.247l0.137,0.022l0.061,0.157c-0,-0 -0.04,0.194 -0.161,0.393c-0.119,0.2 -0.275,0.308 -0.275,0.308c-0,-0 -0.19,-0.433 -0.133,-1.017c0.055,-0.584 0.078,-0.957 0.078,-0.957c-0,-0 -0.259,-0.024 -0.528,-0.063c0,-0.145 0.025,-0.285 0.12,-0.469c0.054,-0.105 0.186,-0.19 0.353,-0.298" style="fill:#fff;fill-rule:nonzero;"/>
            <path d="M37.834,38.032c-0.04,-0.08 0.039,-0.276 0.253,-0.611c0.145,-0.227 0.39,-0.465 0.552,-0.6l0.29,0.249l0.281,0.138c-0.286,0.178 -0.748,0.514 -0.742,0.687c0.003,0.12 0.319,0.196 0.616,0.239l0.079,0.191l0.246,-0.056l0.028,-0.093l0.17,0.013c0,-0 0.107,0.136 0.208,0.329c0.1,0.193 0.122,0.323 0.122,0.323c-0,0 -0.491,-0.067 -1.013,-0.259c-0.519,-0.193 -1.07,-0.511 -1.09,-0.55" style="fill:#fff;fill-rule:nonzero;"/>
            <path d="M44.763,31.14c0,-0 -0.088,-0.038 -0.229,-0.067l-0.026,0.074l-0.246,0.057l-0.082,-0.165c-0.274,0.002 -0.371,0.02 -0.714,0.075c-0.334,0.052 -0.67,0.154 -0.714,0.191c-0.093,0.078 -0.056,0.18 -0.101,0.386c-0.046,0.208 -0.132,0.424 -0.725,0.671l-0.25,0.119l-0,-0.005c-0,-0 0.101,-0.473 -0.284,-0.658c-0.332,-0.157 -0.644,0.263 -0.793,0.613c-0.106,0.253 -0.205,0.723 -0.554,0.918c-0.287,0.162 -0.622,-0.025 -0.544,-0.355l0.09,-0.124c0.484,0.444 0.936,-0.615 0.711,-0.735c-0.093,0.186 -0.209,0.303 -0.443,0.351c-0.292,0.057 -0.505,0.105 -0.603,0.416c-0.122,0.395 0.188,0.9 0.735,0.814c0.615,-0.097 0.732,-0.925 0.843,-1.173c0.124,-0.28 0.289,-0.393 0.409,-0.344c0.098,0.041 0.187,0.157 0.075,0.514c-0.182,0.141 -0.272,0.251 -0.272,0.251c-0.528,0.645 -0.392,1.088 -0.752,1.341c0.043,0.075 0.098,0.191 0.098,0.339l-0.02,0.152l-0.115,0.232l0.14,0.053l0.299,0.05l-0.038,0.297c-0.02,0.162 -0.142,0.4 -0.418,0.542l-0.191,0.068l-0.035,0.223c-0.054,0.165 -0.133,0.244 -0.211,0.306l-0.002,0.004l0,0.011l0.083,0.247l0.187,0.324c0.214,0.3 0.433,0.608 0.574,0.824c0.306,0.465 0.808,1.323 0.808,1.323c-0,0 0.125,-0.141 0.245,-0.345c0.121,-0.202 0.087,-0.352 0.087,-0.352l-0.133,-0.126l-0.228,0.032l-0.056,-0.247l0.041,-0.044c-0.123,-0.139 -0.257,-0.307 -0.372,-0.487c-0.309,-0.483 -0.413,-0.932 -0.413,-0.932c-0,0 0.437,-0.195 0.739,-0.919c0.292,-0.707 -0.118,-1.003 0.24,-1.692c0.204,-0.393 0.769,-0.45 1.217,-1.103c0.449,-0.654 0.201,-1.245 0.342,-1.413c0.142,-0.167 0.756,-0.144 0.92,-0.076c0.165,0.068 0.327,0.343 0.327,0.343c0,-0 0.14,-0.121 0.26,-0.344c0.121,-0.224 0.094,-0.455 0.094,-0.455" style="fill:#fff;fill-rule:nonzero;"/>
            <path d="M37.418,34.8c0.03,-0.013 0.081,0.052 0.09,0.252c0.008,0.2 -0.08,0.28 -0.08,0.28l-0.228,-0.041l0.218,-0.491Zm-2.599,0.404l0.107,0.048l2.031,-0.197l0.023,0.19l0.106,0.207c0,-0 0.096,0.716 0.211,1.047c0.062,0.126 0.334,0.175 0.353,0.117c0.022,-0.057 -0.106,-0.298 0.133,-0.372c0.202,-0.062 0.231,0.227 0.3,0.255c0.07,0.027 0.199,-0.043 0.224,-0.227c0.025,-0.186 -0.151,-0.268 -0.151,-0.268l-0.008,-0.552c0,-0 0.201,-0.232 0.279,-0.529c0.079,-0.296 -0.035,-0.51 -0.035,-0.51l0.147,-0.069c0,0 0.16,0.176 0.136,0.547c-0.014,0.254 -0.223,0.622 -0.223,0.622c-0,-0 0.024,0.362 0.282,0.888c0.259,0.526 0.881,0.586 0.881,0.586c-0,0 -0.168,-0.283 -0.116,-0.49c0.051,-0.208 0.15,-0.127 0.218,-0.333c0.069,-0.206 -0.059,-0.427 -0.059,-0.427c-0,0 0.213,0.071 0.44,-0.045c0.227,-0.117 0.251,-0.303 0.251,-0.303c0,0 -0.145,-0.02 -0.294,-0.109c-0.149,-0.09 -0.232,-0.213 -0.232,-0.213c0,0 0.206,-0.198 0.248,-0.352c0.041,-0.152 -0.068,-0.28 -0.068,-0.28c-0,-0 -0.081,0.023 -0.265,0.009c-0.443,-0.034 -0.603,-0.425 -1.113,-0.701c-0.475,-0.26 -0.975,0.048 -1.038,0.088l-0.067,-0.163l-0.031,-0.193c-0.017,-0.007 -0.129,0.085 -0.222,0.293c-0.074,0.164 -0.072,0.314 -0.064,0.427l-0.095,0.16l-0.053,0.135l-2.145,0.628l-0.091,0.086Z" style="fill:#fff;fill-rule:nonzero;"/>
        </g>
    </g>
</svg>